<?xml version="1.0" encoding="UTF-8" standalone="no"?>
<svg
   xmlns:dc="http://purl.org/dc/elements/1.1/"
   xmlns:cc="http://creativecommons.org/ns#"
   xmlns:rdf="http://www.w3.org/1999/02/22-rdf-syntax-ns#"
   xmlns:svg="http://www.w3.org/2000/svg"
   xmlns="http://www.w3.org/2000/svg"
   xmlns:sodipodi="http://sodipodi.sourceforge.net/DTD/sodipodi-0.dtd"
   xmlns:inkscape="http://www.inkscape.org/namespaces/inkscape"
   width="110mm"
   height="110mm"
   viewBox="0 0 110 110"
   version="1.1"
   id="svg33"
   sodipodi:docname="logo.svg"
   inkscape:version="1.0.2 (e86c870879, 2021-01-15, custom)">
  <defs
     id="defs27" />
  <sodipodi:namedview
     id="base"
     pagecolor="#ffffff"
     bordercolor="#666666"
     borderopacity="1.0"
     inkscape:pageopacity="0.0"
     inkscape:pageshadow="2"
     inkscape:zoom="1.4142136"
     inkscape:cx="130.30988"
     inkscape:cy="114.76527"
     inkscape:document-units="mm"
     inkscape:current-layer="layer1"
     inkscape:document-rotation="0"
     showgrid="false"
     inkscape:window-width="2560"
     inkscape:window-height="1411"
     inkscape:window-x="1920"
     inkscape:window-y="0"
     inkscape:window-maximized="0" />
  <metadata
     id="metadata30">
    <rdf:RDF>
      <cc:Work
         rdf:about="">
        <dc:format>image/svg+xml</dc:format>
        <dc:type
           rdf:resource="http://purl.org/dc/dcmitype/StillImage" />
        <dc:title></dc:title>
      </cc:Work>
    </rdf:RDF>
  </metadata>
  <g
     inkscape:label="Layer 1"
     inkscape:groupmode="layer"
     id="layer1"
     transform="translate(-14.29215,-29.988164)">
    <path
       style="fill:none;stroke:none;stroke-width:0.264583px;stroke-linecap:butt;stroke-linejoin:miter;stroke-opacity:1"
       d="m 12.61767,138.68779 35.692,-39.422898 19.607431,9.602088 z"
       id="path47"
       sodipodi:nodetypes="cccc" />
    <path
       style="fill:none;stroke:none;stroke-width:0.264583px;stroke-linecap:butt;stroke-linejoin:miter;stroke-opacity:1"
       d="M 67.917101,108.86698 67.90252,61.029613 48.30967,99.264892 V 39.264893 l 19.59285,21.76472"
       id="path49"
       sodipodi:nodetypes="ccccc" />
    <path
       style="fill:none;stroke:none;stroke-width:0.264583px;stroke-linecap:butt;stroke-linejoin:miter;stroke-opacity:1"
       d="m 69.303752,39.666472 15,89.999998 15.000003,-89.999998 z"
       id="path51"
       sodipodi:nodetypes="cccc" />
    <path
       style="fill:none;stroke:none;stroke-width:0.264583px;stroke-linecap:butt;stroke-linejoin:miter;stroke-opacity:1"
       d="m 99.303755,39.666472 13.999995,89.999998 16,-89.999998 z"
       id="path53"
       sodipodi:nodetypes="cccc" />
    <path
       style="fill:#828282;fill-opacity:1;stroke:none;stroke-width:0.133635"
       d="m 48.453989,69.090301 c -0.0013,-23.135132 0.03303,-29.355219 0.161137,-29.191137 0.08954,0.114681 4.402357,4.918818 9.584044,10.675858 5.181687,5.757042 9.411197,10.50413 9.39891,10.549088 -0.01953,0.07144 -18.25398,35.677062 -18.896369,36.898112 -0.239673,0.45557 -0.246108,-0.29593 -0.247722,-28.931921 z"
       id="path55" />
    <path
       style="fill:#646464;fill-opacity:1;stroke:none;stroke-width:0.133635"
       d="m 59.602335,104.56965 c -4.336447,-2.12529 -8.586227,-4.21232 -9.44395,-4.637848 l -1.559502,-0.77369 9.218898,-17.973865 c 5.070393,-9.88563 9.362472,-18.244484 9.537954,-18.575232 l 0.319058,-0.601355 0.0062,23.219039 c 0.0034,12.770463 -0.03888,23.216351 -0.094,23.213071 -0.05512,-0.003 -3.648228,-1.74483 -7.984678,-3.87012 z"
       id="path57" />
    <path
       style="fill:#969696;fill-opacity:1;stroke:none;stroke-width:0.133635"
       d="m 16.194342,136.32934 c 0.19459,-0.2118 6.399798,-7.18741 15.650694,-17.80959 9.115355,-10.46654 16.537521,-18.950218 16.585265,-18.937378 0.172717,0.0465 18.79156,9.166458 18.879516,9.247688 0.07733,0.0714 -48.543312,26.11289 -49.045384,26.3925 -0.08769,0.0488 -2.264674,1.31857 -2.070091,1.10678 z"
       id="path59"
       sodipodi:nodetypes="sscsss" />
    <path
       style="fill:#969696;fill-opacity:1;stroke:none;stroke-width:0.133635"
       d="m 84.483683,127.49392 c -0.206928,-0.93655 -14.659417,-87.956009 -14.61543,-87.999996 0.02663,-0.02663 7.668569,0 14.707146,0 H 99.303755 L 91.938009,83.832761 C 87.03154,113.36775 84.542912,127.76199 84.483683,127.49392 Z"
       id="path61"
       sodipodi:nodetypes="ssscss" />
    <path
       style="fill:#b4b4b4;fill-opacity:1;stroke:none;stroke-width:0.133635"
       d="m 104.63304,126.88801 c -0.13049,-0.84524 -3.22625,-20.75014 -6.879464,-44.233106 l -6.642231,-43.16098 c 10.597425,8.9e-4 19.324645,0.0079 29.433625,0 0.0353,0.03526 -15.26096,86.123806 -15.63473,87.999996 -0.022,0.11025 -0.1467,0.23931 -0.2772,-0.60593 z"
       id="path63"
       sodipodi:nodetypes="sscccss" />
  </g>
</svg>
